<svg xmlns="http://www.w3.org/2000/svg" viewBox="0 0 1200 700"><defs><linearGradient id="g" x1="0" y1="0" x2="0" y2="1"><stop stop-color="#4a5546"/><stop offset=".55" stop-color="#252d25"/><stop offset="1" stop-color="#111511"/></linearGradient><linearGradient id="glass" x1="0" y1="0" x2="1" y2="1"><stop stop-color="#7f8b82" stop-opacity=".55"/><stop offset="1" stop-color="#121713" stop-opacity=".92"/></linearGradient><filter id="s"><feGaussianBlur stdDeviation="18"/></filter></defs><ellipse cx="600" cy="589" rx="190" ry="27" fill="#000" opacity=".44" filter="url(#s)"/><circle cx="487" cy="535" r="95" fill="#0b0e0b" stroke="#414a40" stroke-width="24"/><circle cx="713" cy="535" r="95" fill="#0b0e0b" stroke="#414a40" stroke-width="24"/><circle cx="487" cy="535" r="48" fill="#1b211c" stroke="#717b70" stroke-width="7"/><circle cx="713" cy="535" r="48" fill="#1b211c" stroke="#717b70" stroke-width="7"/><path d="M560 263h80l39 55 28 146-73 71h-68l-73-71 28-146z" fill="url(#g)"/><path d="M566 258c6-47 20-82 34-105 14 23 28 58 34 105z" fill="url(#glass)"/><path d="M524 338l76-57 76 57-24 57H548z" fill="#2e382e"/><path d="M535 353l42-28-15 69-48 18zM665 353l-42-28 15 69 48 18z" fill="#dfe339"/><path d="M572 397h56l28 118-56 35-56-35z" fill="#171d18"/><path d="M469 321l91 31M731 321l-91 31" stroke="#697668" stroke-width="8" stroke-linecap="round"/><path d="M458 317l-24-14M742 317l24-14" stroke="#8b9688" stroke-width="7" stroke-linecap="round"/><path d="M600 458v105" stroke="#5a6658" stroke-width="14"/><path d="M541 471l-54 64M659 471l54 64" stroke="#6f7a6d" stroke-width="9"/></svg>